<?xml version="1.0" standalone="no"?>
<!DOCTYPE svg PUBLIC "-//W3C//DTD SVG 20010904//EN"
 "http://www.w3.org/TR/2001/REC-SVG-20010904/DTD/svg10.dtd">
<svg version="1.0" xmlns="http://www.w3.org/2000/svg"
 width="512.000000pt" height="512.000000pt" viewBox="0 0 512.000000 512.000000"
 preserveAspectRatio="xMidYMid meet">
<metadata>
Created by potrace 1.14, written by Peter Selinger 2001-2017
</metadata>
<g transform="translate(0.000000,512.000000) scale(0.100000,-0.100000)"
fill="#000000" stroke="none">
<path d="M2365 5114 c-472 -49 -848 -178 -1215 -418 -260 -170 -535 -442 -708
-698 -631 -936 -580 -2171 125 -3043 377 -466 905 -786 1488 -903 188 -38 285
-47 515 -46 252 1 409 19 623 74 972 249 1713 1047 1887 2035 146 825 -121
1667 -715 2259 -395 393 -879 635 -1445 721 -101 15 -468 28 -555 19z m240
-829 c59 -29 60 -34 60 -411 l0 -342 45 -7 c131 -20 304 -91 417 -171 l48 -34
252 251 252 252 42 -6 c61 -8 94 -44 94 -102 l0 -45 -247 -247 -248 -248 34
-48 c78 -110 143 -265 166 -397 l11 -65 343 0 c379 0 382 -1 411 -62 32 -66
-11 -137 -88 -148 -23 -4 -182 -5 -354 -3 l-311 3 -7 -45 c-20 -133 -97 -318
-173 -418 l-34 -45 245 -246 c159 -160 247 -256 251 -273 16 -68 -54 -138
-122 -122 -17 4 -113 92 -272 250 l-246 244 -84 -55 c-114 -75 -232 -119 -407
-151 l-23 -4 0 -351 0 -351 -29 -29 c-41 -41 -101 -41 -142 0 l-29 29 0 351 0
350 -37 6 c-165 28 -325 94 -442 182 l-33 26 -31 -32 -32 -31 36 0 c48 0 150
-52 190 -97 52 -60 73 -118 73 -203 1 -120 -58 -218 -160 -270 -69 -34 -151
-39 -659 -39 -472 0 -579 6 -637 33 -124 59 -187 212 -143 347 26 77 103 152
180 175 52 15 120 16 174 2 9 -2 18 13 26 47 27 115 102 206 213 258 61 29 76
32 162 32 86 0 101 -3 161 -32 61 -30 138 -98 167 -148 10 -19 15 -16 73 41
l61 61 -36 50 c-74 103 -166 329 -166 408 0 58 18 55 -362 55 l-350 0 -29 29
c-23 23 -29 38 -29 71 0 33 6 48 29 71 l29 29 351 0 350 0 6 38 c25 147 76
279 151 394 l54 82 -244 246 c-158 159 -246 255 -250 272 -10 44 17 96 59 114
20 8 47 12 63 8 17 -4 113 -92 273 -251 l246 -245 44 34 c98 74 265 145 399
168 l65 11 0 343 c0 376 1 382 59 410 39 20 50 20 91 1z"/>
</g>
</svg>
