<?xml version="1.0" standalone="no"?>
<!DOCTYPE svg PUBLIC "-//W3C//DTD SVG 20010904//EN"
 "http://www.w3.org/TR/2001/REC-SVG-20010904/DTD/svg10.dtd">
<svg version="1.0" xmlns="http://www.w3.org/2000/svg"
 width="512.000000pt" height="512.000000pt" viewBox="0 0 512.000000 512.000000"
 preserveAspectRatio="xMidYMid meet">
<metadata>
Created by potrace 1.14, written by Peter Selinger 2001-2017
</metadata>
<g transform="translate(0.000000,512.000000) scale(0.100000,-0.100000)"
fill="#000000" stroke="none">
<path d="M2385 4128 c-33 -5 -84 -13 -112 -19 l-53 -10 0 -182 0 -182 -67 -24
c-38 -13 -94 -37 -126 -53 l-57 -28 -131 130 -130 131 -52 -37 c-161 -116
-263 -218 -385 -386 l-42 -57 130 -131 130 -131 -22 -42 c-12 -23 -23 -44 -23
-47 -1 -3 -9 -22 -18 -43 -9 -21 -21 -56 -27 -78 l-11 -39 -184 0 c-206 0
-188 7 -201 -80 -18 -122 -21 -175 -19 -295 3 -128 5 -147 26 -252 l10 -53
182 0 182 0 18 -52 c20 -57 50 -127 73 -170 14 -26 13 -27 -116 -158 l-130
-131 22 -32 c110 -160 290 -339 427 -424 l34 -21 128 129 128 128 83 -39 c46
-21 102 -44 126 -51 l42 -12 0 -184 c0 -164 3 -188 23 -182 1 0 14 -4 29 -10
79 -30 416 -34 548 -7 14 3 37 8 53 12 l27 6 0 183 0 184 42 11 c22 7 79 29
125 51 l85 38 128 -129 128 -129 53 36 c126 82 265 218 366 357 l62 85 -129
131 -130 131 19 37 c28 57 47 102 67 160 l18 52 183 0 c114 0 183 4 184 10 1
6 2 13 3 18 41 168 43 414 5 600 l-10 52 -183 0 -182 0 -23 68 c-13 37 -36 93
-52 125 l-29 57 130 130 130 130 -36 53 c-96 137 -228 271 -362 367 l-83 59
-130 -129 -129 -130 -58 29 c-31 16 -87 39 -124 52 l-68 23 -2 185 c-3 178 -4
186 -23 188 -11 1 -47 7 -80 13 -77 14 -332 19 -410 8z"/>
</g>
</svg>
